<svg xmlns="http://www.w3.org/2000/svg" viewBox="0 0 64 64">
  <rect width="64" height="64" rx="13" fill="#1a1a1f"/>
  <g shape-rendering="crispEdges">
    <rect x="10" y="10" width="10" height="10" fill="#ec4899"/>
    <rect x="22" y="10" width="10" height="10" fill="#f472b6"/>
    <rect x="34" y="10" width="10" height="10" fill="#ec4899"/>
    <rect x="46" y="10" width="10" height="10" fill="#a78bfa"/>
    <rect x="10" y="22" width="10" height="10" fill="#f472b6"/>
    <rect x="22" y="22" width="10" height="10" fill="#ec4899"/>
    <rect x="34" y="22" width="10" height="10" fill="#a78bfa"/>
    <rect x="46" y="22" width="10" height="10" fill="#c084fc"/>
    <rect x="10" y="34" width="10" height="10" fill="#ec4899"/>
    <rect x="22" y="34" width="10" height="10" fill="#a78bfa"/>
    <rect x="34" y="34" width="10" height="10" fill="#c084fc"/>
    <rect x="46" y="34" width="10" height="10" fill="#5eead4"/>
    <rect x="10" y="46" width="10" height="10" fill="#a78bfa"/>
    <rect x="22" y="46" width="10" height="10" fill="#c084fc"/>
    <rect x="34" y="46" width="10" height="10" fill="#5eead4"/>
    <rect x="46" y="46" width="10" height="10" fill="#fcd34d"/>
  </g>
</svg>
